<?xml version="1.0" encoding="UTF-8"?>
<svg width="752pt" height="752pt" version="1.1" viewBox="0 0 752 752" xmlns="http://www.w3.org/2000/svg">
 <path d="m592.43 351.93c16.695-16.277 7.4844-44.633-15.59-47.984l-106.7-15.504c-9.1641-1.332-17.086-7.0859-21.184-15.391l-47.723-96.691c-10.32-20.91-40.137-20.91-50.453 0l-47.719 96.691c-4.0977 8.3047-12.02 14.059-21.184 15.391l-106.7 15.504c-23.074 3.3516-32.289 31.711-15.59 47.984l77.211 75.262c6.6289 6.4609 9.6562 15.773 8.0898 24.902l-18.227 106.27c-3.9414 22.98 20.18 40.508 40.82 29.656l95.441-50.176c8.1953-4.3086 17.988-4.3086 26.184 0l95.441 50.176c20.637 10.852 44.762-6.6758 40.816-29.656l-18.227-106.27c-1.5664-9.125 1.4609-18.438 8.0898-24.902z" fill="#ffd65b"/>
</svg>
