<?xml version="1.0" encoding="UTF-8"?>
<svg width="752pt" height="752pt" version="1.1" viewBox="0 0 752 752" xmlns="http://www.w3.org/2000/svg">
 <path d="m486.76 424.85 87.492-59.812c2.8047-2.2227 6.1602-4.4648 8.9648-7.8086 2.2344-3.3438 5.5938-7.8086 5.5938-15.637 0.55469-4.4648-1.6758-10.043-4.4961-13.402-4.4805-5.0234-8.9375-6.6875-12.863-7.8086-3.9102-1.1094-7.2695-1.6758-11.195-1.6758l-113.22-7.7461c-1.1211 0-3.9102-0.55469-6.1484-2.2344-2.25-1.668-3.9414-4.4648-3.9414-5.5781l-36.934-117.93c-1.6758-3.8984-2.7734-7.8086-5.6055-11.727-2.7852-3.9102-8.3906-10.043-18.453-10.598-10.074 0.55469-15.68 6.6875-18.48 10.598-2.7891 3.9102-3.9102 7.8242-5.0234 11.727l-37.504 117.93c0 1.1094-1.6758 3.9102-3.9258 5.5781-2.2344 1.6758-5.0234 2.2344-6.1484 2.2344l-113.22 7.7422c-5.0352 0-9.5195 0.56641-15.098 2.8047-2.8164 1.1094-5.6055 3.3438-8.9648 6.6875-2.8047 3.3594-4.4805 8.9375-4.4805 13.402 0 7.8242 3.3594 12.293 6.1602 15.637 2.7891 3.3438 5.5938 5.5938 8.9492 7.8086l88.047 60.367c1.668 0.55469 5.0234 6.1484 4.4648 10.059v2.2227l-32.551 116.25c-1.1094 3.8984-2.2344 7.2539-2.2344 11.727 0 3.9102 0.55469 8.9375 4.4805 14.512 3.1055 5.1758 10.57 8.4336 16.094 8.4336 0.44531 0 0.84766-0.015625 1.25-0.058593 10.641-0.55469 15.121-4.4648 20.145-8.3828l93.566-70.48c0.56641-1.1094 2.8047-1.668 5.0352-1.668 2.8047 0 4.4805 0.55469 5.6055 1.668l98.59 71.039c5.5938 3.9102 9.5195 7.8242 20.133 8.3828h0.56641c5.6055 0 12.875-3.3594 16.789-8.9375 3.3594-5.0234 3.9102-10.043 3.9102-13.957 0-4.4648-0.55469-8.3828-2.2227-12.848l-37.598-116.79v-2.2344c-0.55078-3.3438 2.8047-8.9336 4.4727-9.4922zm-24.004-35.195 0.015626 0.027344c-14.414 9.8203-23.82 28.191-23.043 46.102v7.4883l2.0547 6.3711 21.16 65.766-54.621-39.363c-6.8008-5.4258-31.801-10.641-31.801-10.641l-0.41406-214.05 19.715 62.906c3.2734 12.613 11.656 22.727 19.633 28.664 8.5039 6.3281 19.074 10.129 29.355 10.598l64.336 4.4141z" fill="#ffd65b"/>
</svg>
